<mxfile host="app.diagrams.net" modified="2023-09-17T06:47:19.928Z" agent="Mozilla/5.0 (Windows NT 10.0; Win64; x64) AppleWebKit/537.36 (KHTML, like Gecko) Chrome/116.0.0.0 Safari/537.36" version="21.7.5" etag="K5mELZmvct4I1XbDDERe" type="github">
  <diagram name="페이지-1" id="EIOY_QHqy6yjCqHi9vh4">
    <mxGraphModel>
      <root>
        <mxCell id="0" />
        <mxCell id="1" parent="0" />
      </root>
    </mxGraphModel>
  </diagram>
</mxfile>
